<mxfile host="app.diagrams.net" modified="2024-03-31T13:06:17.600Z" agent="Mozilla/5.0 (Windows NT 10.0; Win64; x64) AppleWebKit/537.36 (KHTML, like Gecko) Chrome/123.0.0.0 Safari/537.36" version="24.1.0" etag="ZCrnSumsny60n2zzOnR0" type="github">
  <diagram name="第 1 页" id="GhxfDGMnwkS_tcNqw0Pj">
    <mxGraphModel>
      <root>
        <mxCell id="0" />
        <mxCell id="1" parent="0" />
      </root>
    </mxGraphModel>
  </diagram>
</mxfile>
